<svg width="1366" height="656" viewBox="0 0 1366 656" fill="none" xmlns="http://www.w3.org/2000/svg">
<g clip-path="url(#clip0_14_98)">
<rect width="1366" height="656" fill="url(#paint0_linear_14_98)"/>
<path d="M1006.24 58.0435C985.993 61.6175 1078.3 -64.4892 1129.61 44.402C1136.46 33.4997 1158.73 48.9447 1169 58.0299V169L990.906 167.053C958.369 169 965.219 135.904 970.357 102.807C974.942 73.2719 996.342 61.6273 1006.24 58.0435Z" fill="#393F45"/>
<path d="M1167.15 65.256C1141.41 69.2741 1258.73 -72.5026 1323.94 49.9194C1332.65 37.6624 1360.94 55.0265 1374 65.2408V190L1147.65 187.811C1106.3 190 1115.01 152.791 1121.54 115.582C1127.36 82.3767 1154.56 69.2852 1167.15 65.256Z" fill="#2C333B"/>
<path d="M356.038 51.6282C375.644 54.8071 286.275 -57.3614 236.599 39.4944C229.967 29.7971 208.415 43.535 198.468 51.6161V150.321L370.887 148.589C402.388 150.321 395.756 120.883 390.782 91.4444C386.343 65.1735 365.625 54.8159 356.038 51.6282Z" fill="#393F45"/>
<path d="M200.261 58.0435C225.179 61.6175 111.597 -64.4892 48.4617 44.402C40.0329 33.4997 12.6419 48.9447 1.52588e-05 58.0299V169L219.134 167.053C259.169 169 250.74 135.904 244.418 102.807C238.777 73.2719 212.446 61.6273 200.261 58.0435Z" fill="#2C333B"/>
<g filter="url(#filter0_d_14_98)">
<circle cx="1187" cy="243" r="117" fill="#FAF5DB"/>
</g>
<path d="M1359.23 378.273C1101.88 37.2928 659.848 236.198 471 378.273C571.652 413.73 693.417 452.727 815.487 485.988C834.487 498.248 971.191 495.701 1366 387.435C1363.83 384.425 1361.57 381.371 1359.23 378.273Z" fill="#465260"/>
<path d="M1368 376.245C450.317 674.743 350.525 80.5235 0 248.515V656H1368V376.245Z" fill="#444E5A"/>
<rect x="156" y="602" width="165" height="54" fill="#2C333C"/>
<path d="M173 547H303.5L344 602H140L173 547Z" fill="#59585A"/>
<rect x="190" y="524" width="30" height="23" fill="#343C47"/>
<rect x="281" y="603" width="23" height="23" fill="#FD9A6F"/>
<rect x="249" y="603" width="23" height="23" fill="#FD9A6F"/>
<rect x="185" y="608" width="35" height="48" fill="#1E1E1E"/>
<path d="M67.6651 625.836C-2.20161 625.836 23.5851 571.653 44.2301 553.778C39.2084 533.11 36.8648 492.445 67.6651 495.126C98.4654 497.808 98.3537 535.345 94.4479 553.778L94.6194 554.043C114.136 584.187 141.102 625.836 67.6651 625.836Z" fill="#2C333B"/>
<path d="M67.6651 625.836C-2.20161 625.836 23.5851 571.653 44.2301 553.778C39.2084 533.11 36.8648 492.445 67.6651 495.126C98.4654 497.808 98.3537 535.345 94.4479 553.778C113.977 583.942 141.318 625.836 67.6651 625.836ZM67.6651 625.836V656" stroke="#2C333B"/>
<path d="M441.401 656V625.038H449.599V656H441.401Z" fill="#2C333B"/>
<path d="M445.5 495C450.862 504.487 456.68 515.93 461.939 528.026L447.55 540.41H467.021C483.126 582.25 488.97 626.524 445.5 622.974C417.193 620.663 409.797 601.487 412.529 577.564L433.202 573.436L416.804 565.179L415.203 563.115C421.151 539.11 434.315 512.961 445.5 495Z" fill="#2C333B"/>
<path d="M441.401 656V625.038H449.599V656H441.401Z" stroke="#2C333B"/>
<path d="M445.5 495C450.862 504.487 456.68 515.93 461.939 528.026L447.55 540.41H467.021C483.126 582.25 488.97 626.524 445.5 622.974C417.193 620.663 409.797 601.487 412.529 577.564L433.202 573.436L416.804 565.179L415.203 563.115C421.151 539.11 434.315 512.961 445.5 495Z" stroke="#2C333B"/>
</g>
<defs>
<filter id="filter0_d_14_98" x="948" y="4" width="482" height="482" filterUnits="userSpaceOnUse" color-interpolation-filters="sRGB">
<feFlood flood-opacity="0" result="BackgroundImageFix"/>
<feColorMatrix in="SourceAlpha" type="matrix" values="0 0 0 0 0 0 0 0 0 0 0 0 0 0 0 0 0 0 127 0" result="hardAlpha"/>
<feOffset dx="2" dy="2"/>
<feGaussianBlur stdDeviation="62"/>
<feComposite in2="hardAlpha" operator="out"/>
<feColorMatrix type="matrix" values="0 0 0 0 0.980392 0 0 0 0 0.960784 0 0 0 0 0.858824 0 0 0 1 0"/>
<feBlend mode="normal" in2="BackgroundImageFix" result="effect1_dropShadow_14_98"/>
<feBlend mode="normal" in="SourceGraphic" in2="effect1_dropShadow_14_98" result="shape"/>
</filter>
<linearGradient id="paint0_linear_14_98" x1="683" y1="1.48702e-06" x2="683" y2="187" gradientUnits="userSpaceOnUse">
<stop stop-color="#5D6674"/>
<stop offset="1" stop-color="#4F5867"/>
</linearGradient>
<clipPath id="clip0_14_98">
<rect width="1366" height="656" fill="white"/>
</clipPath>
</defs>
</svg>
