<svg width="1366" height="656" viewBox="0 0 1366 656" fill="none" xmlns="http://www.w3.org/2000/svg">
<g clip-path="url(#clip0_13_2)">
<rect width="1366" height="656" fill="url(#paint0_linear_13_2)"/>
<g filter="url(#filter0_d_13_2)">
<circle cx="471" cy="320" r="117" fill="#FDC335"/>
</g>
<path d="M1359.23 378.273C1101.88 37.2928 659.848 236.198 471 378.273C571.652 413.73 693.417 452.727 815.487 485.988C834.487 498.248 971.191 495.701 1366 387.435C1363.83 384.425 1361.57 381.371 1359.23 378.273Z" fill="url(#paint1_linear_13_2)"/>
<path d="M1368 376.245C450.317 674.743 350.525 80.5235 0 248.515V656H1368V376.245Z" fill="url(#paint2_linear_13_2)"/>
<rect x="156" y="602" width="165" height="54" fill="#F8FEFE"/>
<path d="M173 547H303.5L344 602H140L173 547Z" fill="#59585A"/>
<rect x="190" y="524" width="30" height="23" fill="#343C47"/>
<rect x="281" y="603" width="23" height="23" fill="#343C47"/>
<rect x="249" y="603" width="23" height="23" fill="#343C47"/>
<rect x="185" y="608" width="35" height="48" fill="#343C47"/>
<path d="M1000.24 58.0435C979.993 61.6175 1072.3 -64.4892 1123.61 44.402C1130.46 33.4997 1152.73 48.9447 1163 58.0299V169L984.906 167.053C952.369 169 959.219 135.904 964.357 102.807C968.942 73.2719 990.342 61.6273 1000.24 58.0435Z" fill="#FFEDC6"/>
<path d="M1123.61 44.402C1072.24 -64.6212 979.769 61.9236 1000.32 58.0299C1020.87 54.1362 971.604 56.12 964.357 102.807C959.219 135.904 952.369 169 984.906 167.053L1163 169V58.0299C1152.73 48.9447 1130.46 33.4997 1123.61 44.402Z" stroke="#FDE5B5"/>
<path d="M1161.15 65.256C1135.41 69.2741 1252.73 -72.5026 1317.94 49.9194C1326.65 37.6624 1354.94 55.0265 1368 65.2408V190L1141.65 187.811C1100.3 190 1109.01 152.791 1115.54 115.582C1121.36 82.3767 1148.56 69.2852 1161.15 65.256Z" fill="#FCE6B4"/>
<path d="M1317.94 49.9194C1252.65 -72.6511 1135.13 69.6183 1161.24 65.2408C1187.36 60.8632 1124.75 63.0935 1115.54 115.582C1109.01 152.791 1100.3 190 1141.65 187.811L1368 190V65.2408C1354.94 55.0265 1326.65 37.6624 1317.94 49.9194Z" stroke="#FDE5B5"/>
<path d="M350.038 51.6282C369.644 54.8071 280.275 -57.3614 230.599 39.4944C223.967 29.7971 202.415 43.535 192.468 51.6161V150.321L364.887 148.589C396.388 150.321 389.756 120.883 384.782 91.4444C380.343 65.1735 359.625 54.8159 350.038 51.6282Z" fill="#FFEDC6"/>
<path d="M230.599 39.4944C280.335 -57.4789 369.861 55.0794 349.966 51.6161C330.072 48.1528 377.765 49.9173 384.782 91.4444C389.756 120.883 396.388 150.321 364.887 148.589L192.468 150.321V51.6161C202.415 43.535 223.967 29.7971 230.599 39.4944Z" stroke="#FDE5B5"/>
<path d="M194.261 58.0435C219.179 61.6175 105.597 -64.4892 42.4617 44.402C34.0329 33.4997 6.64191 48.9447 -5.99998 58.0299V169L213.134 167.053C253.169 169 244.74 135.904 238.418 102.807C232.777 73.2719 206.446 61.6273 194.261 58.0435Z" fill="#FCE6B4"/>
<path d="M42.4617 44.402C105.674 -64.6212 219.455 61.9236 194.17 58.0299C168.885 54.1362 229.501 56.12 238.418 102.807C244.74 135.904 253.169 169 213.134 167.053L-5.99998 169V58.0299C6.64191 48.9447 34.0329 33.4997 42.4617 44.402Z" stroke="#FDE5B5"/>
</g>
<defs>
<filter id="filter0_d_13_2" x="232" y="81" width="482" height="482" filterUnits="userSpaceOnUse" color-interpolation-filters="sRGB">
<feFlood flood-opacity="0" result="BackgroundImageFix"/>
<feColorMatrix in="SourceAlpha" type="matrix" values="0 0 0 0 0 0 0 0 0 0 0 0 0 0 0 0 0 0 127 0" result="hardAlpha"/>
<feOffset dx="2" dy="2"/>
<feGaussianBlur stdDeviation="62"/>
<feComposite in2="hardAlpha" operator="out"/>
<feColorMatrix type="matrix" values="0 0 0 0 0.992157 0 0 0 0 0.764706 0 0 0 0 0.207843 0 0 0 1 0"/>
<feBlend mode="normal" in2="BackgroundImageFix" result="effect1_dropShadow_13_2"/>
<feBlend mode="normal" in="SourceGraphic" in2="effect1_dropShadow_13_2" result="shape"/>
</filter>
<linearGradient id="paint0_linear_13_2" x1="683" y1="1.48702e-06" x2="683" y2="160" gradientUnits="userSpaceOnUse">
<stop stop-color="#F9D577"/>
<stop offset="1" stop-color="#FCDF99"/>
</linearGradient>
<linearGradient id="paint1_linear_13_2" x1="833" y1="275.5" x2="998" y2="400.5" gradientUnits="userSpaceOnUse">
<stop stop-color="#FDCE65"/>
<stop offset="1" stop-color="#FFDA83"/>
</linearGradient>
<linearGradient id="paint2_linear_13_2" x1="684" y1="351.5" x2="684" y2="556.5" gradientUnits="userSpaceOnUse">
<stop stop-color="#F8B648"/>
<stop offset="1" stop-color="#EFBC69"/>
</linearGradient>
<clipPath id="clip0_13_2">
<rect width="1366" height="656" fill="white"/>
</clipPath>
</defs>
</svg>
