<svg width="1366" height="656" viewBox="0 0 1366 656" fill="none" xmlns="http://www.w3.org/2000/svg">
<g clip-path="url(#clip0_13_69)">
<rect width="1366" height="656" fill="url(#paint0_linear_13_69)"/>
<g filter="url(#filter0_d_13_69)">
<circle cx="1187" cy="243" r="117" fill="#FE7361"/>
</g>
<path d="M1359.23 378.273C1101.88 37.2928 659.848 236.198 471 378.273C571.652 413.73 693.417 452.727 815.487 485.988C834.487 498.248 971.191 495.701 1366 387.435C1363.83 384.425 1361.57 381.371 1359.23 378.273Z" fill="url(#paint1_linear_13_69)"/>
<path d="M1368 376.245C450.317 674.743 350.525 80.5235 0 248.515V656H1368V376.245Z" fill="url(#paint2_linear_13_69)"/>
<rect x="156" y="602" width="165" height="54" fill="#F8FEFE"/>
<path d="M173 547H303.5L344 602H140L173 547Z" fill="#59585A"/>
<rect x="190" y="524" width="30" height="23" fill="#343C47"/>
<rect x="281" y="603" width="23" height="23" fill="#343C47"/>
<rect x="249" y="603" width="23" height="23" fill="#343C47"/>
<rect x="185" y="608" width="35" height="48" fill="#343C47"/>
<path d="M67.6651 625.836C-2.20161 625.836 23.5851 571.653 44.2301 553.778C39.2084 533.11 36.8648 492.445 67.6651 495.126C98.4654 497.808 98.3537 535.345 94.4479 553.778L94.6194 554.043C114.136 584.187 141.102 625.836 67.6651 625.836Z" fill="#73494B"/>
<path d="M67.6651 625.836C-2.20161 625.836 23.5851 571.653 44.2301 553.778C39.2084 533.11 36.8648 492.445 67.6651 495.126C98.4654 497.808 98.3537 535.345 94.4479 553.778C113.977 583.942 141.318 625.836 67.6651 625.836ZM67.6651 625.836V656" stroke="#73494B"/>
<path d="M441.401 656V625.038H449.599V656H441.401Z" fill="#73494B"/>
<path d="M445.5 495C450.862 504.487 456.68 515.93 461.939 528.026L447.55 540.41H467.021C483.126 582.25 488.97 626.524 445.5 622.974C417.193 620.663 409.797 601.487 412.529 577.564L433.202 573.436L416.804 565.179L415.203 563.115C421.151 539.11 434.315 512.961 445.5 495Z" fill="#73494B"/>
<path d="M441.401 656V625.038H449.599V656H441.401Z" stroke="#73494B"/>
<path d="M445.5 495C450.862 504.487 456.68 515.93 461.939 528.026L447.55 540.41H467.021C483.126 582.25 488.97 626.524 445.5 622.974C417.193 620.663 409.797 601.487 412.529 577.564L433.202 573.436L416.804 565.179L415.203 563.115C421.151 539.11 434.315 512.961 445.5 495Z" stroke="#73494B"/>
</g>
<defs>
<filter id="filter0_d_13_69" x="948" y="4" width="482" height="482" filterUnits="userSpaceOnUse" color-interpolation-filters="sRGB">
<feFlood flood-opacity="0" result="BackgroundImageFix"/>
<feColorMatrix in="SourceAlpha" type="matrix" values="0 0 0 0 0 0 0 0 0 0 0 0 0 0 0 0 0 0 127 0" result="hardAlpha"/>
<feOffset dx="2" dy="2"/>
<feGaussianBlur stdDeviation="62"/>
<feComposite in2="hardAlpha" operator="out"/>
<feColorMatrix type="matrix" values="0 0 0 0 0.996078 0 0 0 0 0.45098 0 0 0 0 0.380392 0 0 0 1 0"/>
<feBlend mode="normal" in2="BackgroundImageFix" result="effect1_dropShadow_13_69"/>
<feBlend mode="normal" in="SourceGraphic" in2="effect1_dropShadow_13_69" result="shape"/>
</filter>
<linearGradient id="paint0_linear_13_69" x1="683" y1="1.48702e-06" x2="683" y2="160" gradientUnits="userSpaceOnUse">
<stop stop-color="#FFAD74"/>
<stop offset="1" stop-color="#FB886D"/>
</linearGradient>
<linearGradient id="paint1_linear_13_69" x1="833" y1="275.5" x2="998" y2="400.5" gradientUnits="userSpaceOnUse">
<stop stop-color="#E75F51"/>
<stop offset="1" stop-color="#ED6353"/>
</linearGradient>
<linearGradient id="paint2_linear_13_69" x1="684" y1="351.5" x2="684" y2="556.5" gradientUnits="userSpaceOnUse">
<stop stop-color="#FEA26F"/>
<stop offset="1" stop-color="#FC926F"/>
</linearGradient>
<clipPath id="clip0_13_69">
<rect width="1366" height="656" fill="white"/>
</clipPath>
</defs>
</svg>
